<?xml version="1.0" standalone="no"?>
<!DOCTYPE svg PUBLIC "-//W3C//DTD SVG 20010904//EN"
 "http://www.w3.org/TR/2001/REC-SVG-20010904/DTD/svg10.dtd">
<svg version="1.0" xmlns="http://www.w3.org/2000/svg"
 width="512.000000pt" height="512.000000pt" viewBox="0 0 512.000000 512.000000"
 preserveAspectRatio="xMidYMid meet">
<metadata>
Created by potrace 1.14, written by Peter Selinger 2001-2017
</metadata>
<g transform="translate(0.000000,512.000000) scale(0.100000,-0.100000)"
fill="#000000" stroke="none">
<path d="M2397 5104 c-2 -2 -66 -12 -122 -19 -16 -2 -31 -4 -32 -5 -2 -2 -11
-3 -20 -4 -10 -1 -38 -6 -63 -11 -25 -5 -48 -8 -52 -7 -5 1 -8 -2 -8 -7 0 -5
-8 -8 -17 -6 -10 1 -22 -1 -28 -5 -9 -7 -54 -17 -92 -22 -7 -1 -13 -5 -13 -10
0 -4 -3 -7 -7 -7 -16 3 -74 -14 -79 -22 -3 -5 -10 -7 -15 -4 -5 4 -9 2 -9 -4
0 -5 -9 -8 -20 -6 -11 2 -20 0 -20 -6 0 -5 -9 -9 -20 -9 -11 0 -20 -5 -20 -12
0 -6 -3 -9 -6 -5 -7 7 -220 -98 -229 -113 -3 -6 -11 -8 -16 -5 -5 4 -9 1 -9
-4 0 -6 -7 -11 -15 -11 -8 0 -15 -4 -15 -10 0 -5 -7 -10 -15 -10 -8 0 -15 -5
-15 -11 0 -5 -4 -8 -9 -5 -5 3 -21 -7 -37 -22 -15 -15 -24 -20 -19 -12 8 13 6
13 -8 1 -9 -7 -14 -18 -10 -24 3 -5 1 -7 -5 -3 -6 3 -18 -1 -26 -10 -9 -8 -16
-13 -16 -9 0 3 -13 -8 -30 -25 -16 -17 -30 -28 -30 -25 0 6 -12 -3 -62 -50
-18 -16 -32 -33 -31 -37 2 -5 0 -7 -5 -6 -15 6 -139 -117 -135 -133 2 -5 0 -8
-5 -7 -9 3 -72 -60 -72 -72 0 -5 -3 -10 -7 -12 -5 -1 -25 -25 -45 -53 -21 -27
-42 -56 -48 -62 -6 -7 -8 -13 -5 -13 3 0 -6 -11 -21 -25 -15 -14 -24 -25 -20
-25 4 0 -9 -25 -29 -55 -19 -31 -35 -59 -35 -64 0 -5 -7 -11 -15 -15 -8 -3
-14 -9 -13 -13 4 -14 -13 -53 -23 -53 -6 0 -7 -5 -3 -11 3 -6 2 -14 -3 -18
-14 -9 -52 -92 -39 -84 6 4 3 -3 -7 -14 -9 -11 -17 -27 -17 -36 0 -9 -5 -19
-10 -22 -6 -4 -8 -11 -5 -16 4 -5 1 -9 -4 -9 -6 0 -10 -3 -9 -7 1 -5 -4 -24
-11 -43 -8 -19 -15 -39 -16 -45 -1 -5 -3 -13 -5 -17 -1 -5 -3 -11 -5 -15 -1
-5 -4 -15 -8 -23 -10 -28 -28 -105 -30 -135 -1 -11 -4 -22 -7 -25 -3 -3 -10
-29 -16 -57 -8 -38 -7 -53 0 -53 8 0 8 -3 1 -8 -6 -4 -10 -14 -10 -22 1 -8 -1
-19 -4 -25 -14 -26 -21 -391 -10 -523 l4 -52 33 37 c30 36 36 47 33 66 -1 5 3
6 9 2 5 -3 10 1 10 9 0 18 35 22 45 6 5 -8 11 -8 20 0 10 8 14 8 17 -2 5 -13
164 -21 183 -10 6 4 21 8 34 10 13 2 37 10 52 18 16 8 30 13 32 12 2 -2 10 4
19 12 9 8 25 22 38 30 35 24 88 78 82 84 -2 3 3 8 12 12 9 3 13 10 10 15 -3 5
2 12 10 15 9 3 14 10 11 14 -3 5 -1 11 5 15 6 4 8 11 5 16 -4 5 -1 9 5 9 7 0
10 7 6 15 -3 8 -2 15 3 15 9 0 24 57 26 99 1 32 16 36 45 11 13 -11 29 -20 37
-20 7 0 13 -5 13 -12 0 -6 3 -9 6 -5 4 3 23 -1 43 -9 20 -8 37 -15 39 -15 1 1
3 1 5 0 1 0 18 -2 37 -3 19 -1 41 -5 48 -10 6 -4 12 -4 12 1 0 4 20 9 44 11
24 1 60 9 80 17 20 8 36 12 36 8 0 -5 4 -3 8 3 4 6 22 18 39 27 32 15 34 15
60 -12 16 -15 36 -30 46 -34 9 -3 17 -11 17 -16 0 -9 56 -32 74 -30 5 0 12 -4
15 -9 4 -6 18 -13 31 -15 46 -7 80 -26 90 -49 5 -13 9 -20 9 -15 1 4 9 -1 19
-10 44 -42 59 -52 95 -61 9 -2 17 -8 17 -13 0 -5 3 -8 8 -8 37 6 79 -21 66
-42 -12 -20 -14 -39 -3 -39 5 0 8 -6 7 -12 -2 -7 3 -12 10 -10 8 1 11 -2 8 -7
-4 -5 -2 -12 4 -16 5 -3 10 -11 10 -16 0 -6 -4 -7 -10 -4 -5 3 -11 -1 -11 -9
-1 -9 -2 -22 -3 -28 -3 -17 15 -58 25 -58 13 0 20 -33 7 -41 -17 -11 -19 -71
-4 -89 8 -8 12 -26 11 -40 -1 -14 4 -40 11 -59 8 -19 11 -46 7 -65 -9 -45 -7
-78 7 -86 6 -4 11 -11 11 -16 -2 -30 12 -44 45 -44 28 0 36 5 44 26 12 32 13
47 1 40 -10 -7 -9 20 2 30 12 12 8 62 -5 67 -10 3 -9 9 4 23 26 30 38 70 25
83 -6 6 -8 11 -3 11 4 0 0 7 -8 16 -14 14 -14 19 6 53 21 36 21 39 4 71 -15
31 -15 36 -2 46 9 6 13 14 9 17 -3 4 -1 7 6 7 9 0 12 13 9 43 -4 34 0 48 20
71 17 21 23 39 20 62 -3 28 1 34 31 50 19 11 40 24 47 31 7 7 25 10 46 7 30
-5 35 -10 35 -34 0 -33 28 -66 65 -75 16 -4 25 -11 22 -16 -3 -5 0 -9 6 -9 6
0 9 -4 6 -9 -3 -4 3 -19 14 -31 16 -18 18 -25 8 -32 -7 -4 -9 -8 -3 -8 5 0 4
-5 -3 -12 -18 -18 -14 -52 8 -76 12 -12 17 -22 13 -22 -5 0 -9 -16 -10 -35 0
-19 2 -35 6 -35 4 0 15 -13 24 -30 11 -18 14 -30 7 -30 -6 0 -9 -4 -6 -8 2 -4
1 -14 -4 -21 -10 -18 7 -68 26 -75 20 -8 18 -22 -7 -47 -20 -20 -19 -56 4 -70
5 -4 7 -11 4 -15 -9 -16 18 -42 48 -46 24 -2 32 2 43 26 8 16 10 31 6 35 -11
8 -15 43 -4 36 12 -7 18 43 7 54 -7 7 -5 16 6 28 8 10 16 20 16 23 0 3 3 13 7
24 4 10 3 21 -2 25 -11 8 -14 51 -3 51 4 0 14 13 23 30 8 17 11 30 7 30 -4 0
-7 10 -7 23 1 12 -4 21 -9 20 -17 -3 -16 37 1 44 7 3 11 9 8 14 -2 5 0 18 6
29 8 14 8 20 0 20 -6 0 -3 11 7 24 10 13 21 22 24 20 10 -5 18 33 13 59 -3 19
1 22 24 21 18 -1 35 8 50 25 41 48 44 51 31 51 -8 0 -6 7 4 18 10 10 14 22 10
27 -5 4 -3 5 4 1 6 -3 18 3 26 14 7 11 16 17 19 14 4 -3 9 3 12 13 6 19 46 49
46 35 0 -5 6 -9 13 -10 6 0 22 -3 35 -6 12 -2 22 -1 22 5 0 5 3 8 8 8 4 -1 9
0 12 1 15 6 50 6 50 0 0 -10 131 2 162 14 9 4 24 9 33 10 9 1 24 10 35 18 10
9 21 14 23 11 3 -3 12 -1 19 3 24 15 40 13 45 -6 3 -10 12 -21 20 -24 8 -3 12
-10 8 -15 -3 -5 4 -13 16 -16 11 -4 18 -9 15 -12 -5 -6 18 -33 29 -33 3 0 15
-9 27 -20 12 -11 28 -20 35 -20 7 0 13 -4 13 -10 0 -5 9 -10 20 -10 11 0 20
-4 20 -8 0 -5 6 -9 13 -9 6 -1 27 -6 45 -11 58 -19 252 -5 277 19 5 5 15 9 23
9 15 0 50 25 113 83 39 35 60 46 58 30 -2 -16 14 -53 23 -53 5 0 7 -4 3 -9 -3
-5 2 -16 10 -24 8 -9 15 -19 15 -23 0 -12 115 -124 128 -124 19 0 44 -28 37
-40 -3 -5 -1 -10 4 -10 6 0 10 -3 10 -7 -4 -27 3 -63 11 -58 5 3 7 0 4 -9 -3
-8 0 -25 7 -38 7 -13 12 -26 11 -30 -1 -5 4 -8 11 -8 8 0 14 15 15 38 2 20 4
47 4 60 1 12 5 22 8 22 11 0 6 94 -5 102 -6 5 -6 8 1 8 15 0 14 252 -1 262 -6
5 -5 8 3 8 7 0 10 5 7 10 -4 6 -8 26 -11 45 -10 85 -12 101 -18 125 -3 14 -8
39 -10 55 -3 17 -14 65 -24 107 -11 43 -17 80 -14 83 3 3 0 5 -7 5 -7 0 -10 4
-7 8 2 4 -4 27 -14 50 -11 23 -17 42 -15 42 2 0 -2 12 -10 27 -8 15 -12 30 -9
35 3 4 0 8 -5 8 -6 0 -10 3 -10 8 1 4 0 10 -1 15 -1 4 -3 10 -4 15 -6 20 -61
129 -75 146 -10 12 -11 17 -3 12 11 -7 11 -4 1 12 -7 12 -17 19 -21 16 -4 -3
-5 3 -1 12 5 13 3 15 -7 9 -9 -6 -12 -4 -8 6 3 9 -3 26 -13 40 -10 13 -19 29
-19 34 0 6 -9 17 -19 24 -11 8 -17 20 -14 28 3 7 0 13 -6 13 -6 0 -11 5 -11
11 0 7 -10 20 -22 30 -11 11 -17 19 -13 19 4 0 -2 9 -15 20 -13 11 -19 20 -14
20 5 0 4 4 -1 8 -6 4 -22 23 -37 44 -15 20 -34 43 -42 51 -8 8 -12 17 -9 21 4
3 1 6 -6 6 -13 0 -41 24 -41 35 0 3 -13 19 -30 35 -16 16 -30 35 -30 41 0 7
-3 10 -6 7 -3 -4 -21 9 -41 28 -19 19 -39 34 -44 34 -6 0 -7 5 -4 10 3 6 -1
10 -9 10 -9 0 -16 7 -16 17 0 9 -3 14 -6 10 -3 -3 -22 9 -41 26 -19 18 -36 30
-37 27 -1 -3 -14 6 -29 20 -15 14 -36 32 -45 40 -24 20 -100 70 -108 70 -3 0
-17 9 -31 20 -14 11 -30 17 -36 13 -6 -3 -7 -1 -3 5 4 7 1 12 -8 12 -9 0 -16
5 -16 11 0 5 -4 8 -9 5 -5 -4 -11 -2 -13 4 -2 6 -14 12 -28 15 -14 3 -26 9
-28 15 -2 5 -9 10 -15 10 -7 0 -34 11 -62 24 -27 14 -53 22 -57 20 -5 -3 -8 3
-8 12 0 10 -3 14 -7 11 -3 -4 -13 -1 -21 6 -13 10 -14 9 -8 -2 6 -9 1 -8 -16
3 -14 9 -28 13 -32 9 -4 -4 -10 -3 -14 2 -4 6 -36 20 -72 32 -55 19 -85 27
-145 39 -5 1 -30 7 -55 14 -25 7 -58 14 -75 15 -16 2 -30 4 -30 5 0 1 -11 3
-25 4 -14 2 -47 6 -75 11 -43 7 -431 15 -438 9z"/>
<path d="M3928 2836 c-13 -9 -14 -15 -4 -28 14 -19 38 -9 42 16 3 20 -18 27
-38 12z"/>
<path d="M3322 2703 c-16 -17 -24 -54 -14 -68 13 -18 56 -50 47 -36 -6 11 -4
13 7 8 39 -14 68 65 35 96 -17 17 -60 17 -75 0z"/>
<path d="M1840 2700 c-12 -7 -12 -12 -2 -22 9 -9 15 -9 24 0 9 9 9 12 -1 12
-7 0 -9 5 -6 10 8 12 4 12 -15 0z"/>
<path d="M1569 2310 c-7 -5 -16 -7 -20 -5 -3 3 -11 -6 -16 -18 -13 -27 0 -67
22 -67 8 0 15 -4 15 -10 0 -19 45 35 46 55 2 26 -29 56 -47 45z"/>
<path d="M3793 2217 c9 -8 17 -19 17 -26 0 -6 4 -10 9 -8 5 1 9 -2 10 -6 0 -4
6 -14 13 -21 7 -7 22 -25 33 -39 11 -15 25 -27 32 -27 7 0 12 -4 11 -9 -3 -8
30 -53 75 -102 23 -25 22 -30 -10 -66 -16 -17 -39 -45 -53 -62 -14 -17 -42
-50 -62 -73 -21 -23 -38 -48 -38 -55 0 -12 3 -12 15 1 8 8 15 20 15 27 0 7 3
10 6 6 6 -6 30 11 71 51 14 12 35 30 49 38 13 9 21 20 18 25 -3 5 2 9 11 9 8
0 18 6 21 13 6 15 34 19 34 4 0 -5 7 -7 14 -4 11 4 13 1 9 -10 -4 -9 -2 -14 3
-10 6 3 18 -5 28 -19 11 -13 23 -24 28 -24 10 0 15 -4 83 -66 28 -25 64 -55
80 -66 l30 -20 -24 21 c-13 12 -21 21 -18 21 3 0 -9 15 -26 34 -18 18 -48 53
-67 76 -19 24 -41 49 -47 56 -7 7 -13 17 -13 23 0 6 -11 18 -25 27 -18 12 -22
20 -15 29 5 6 6 16 2 20 -4 5 1 5 11 2 10 -4 17 -1 17 7 0 7 22 37 50 67 27
30 53 59 57 64 84 106 82 114 -5 27 -23 -23 -47 -40 -52 -37 -9 6 -14 -8 -11
-28 1 -5 -3 -6 -7 -3 -5 3 -28 -12 -50 -33 -22 -22 -43 -36 -46 -33 -3 3 -6 1
-6 -5 0 -6 -9 -9 -20 -6 -11 3 -20 12 -20 21 0 8 -3 13 -6 9 -6 -6 -25 8 -91
71 -26 25 -52 41 -60 38 -8 -3 -11 -1 -8 4 6 10 -41 57 -74 73 -12 6 -12 5 2
-6z"/>
<path d="M896 1925 c-36 -31 -40 -31 -66 -2 -19 20 -21 20 -14 2 4 -11 14 -25
22 -30 11 -9 9 -15 -11 -37 -14 -15 -22 -29 -19 -32 3 -3 16 6 29 20 l24 27
37 -34 36 -34 -27 37 c-24 32 -26 40 -15 58 7 11 16 20 19 20 4 0 9 7 13 15 7
20 6 19 -28 -10z"/>
<path d="M3802 1704 c-7 -8 -8 -14 -3 -14 10 0 25 19 20 25 -2 1 -10 -3 -17
-11z"/>
<path d="M1428 1228 c-10 -15 -12 -30 -7 -43 4 -11 8 -16 8 -11 1 5 7 3 15 -3
11 -9 20 -10 35 -1 25 13 27 42 5 64 -21 22 -39 20 -56 -6z"/>
<path d="M3785 1210 c-4 -6 -11 -7 -17 -4 -7 4 -8 2 -4 -4 4 -7 3 -12 -2 -12
-19 0 -1 -36 18 -37 28 -2 44 21 30 46 -12 24 -16 25 -25 11z"/>
<path d="M2508 1129 c-43 -44 -78 -85 -78 -91 0 -6 -3 -8 -6 -5 -7 7 -114
-102 -114 -116 0 -5 -4 -5 -10 -2 -9 6 -14 -8 -11 -28 1 -5 -3 -6 -9 -2 -5 3
-13 -1 -16 -9 -3 -9 -13 -16 -22 -16 -8 0 -13 -3 -9 -6 3 -3 -6 -17 -21 -30
-26 -25 -26 -25 -4 -31 12 -3 19 -9 16 -14 -3 -5 1 -9 8 -9 7 0 28 -18 47 -40
19 -22 39 -36 45 -33 6 3 8 3 4 -2 -10 -11 20 -38 33 -29 7 4 9 3 5 -4 -3 -6
1 -15 10 -20 9 -5 15 -13 15 -18 -1 -5 5 -9 12 -9 6 -1 11 -6 9 -13 -1 -7 3
-12 8 -12 6 0 30 -19 54 -42 24 -24 69 -66 100 -95 31 -28 56 -56 56 -62 0 -6
3 -11 8 -11 4 0 14 -15 21 -32 8 -18 30 -54 48 -80 18 -27 31 -48 27 -48 -3 0
2 -7 10 -16 9 -8 13 -20 10 -26 -4 -7 -2 -8 4 -4 7 4 12 1 12 -8 0 -9 5 -16
11 -16 5 0 8 -4 4 -9 -3 -5 2 -16 10 -24 8 -9 15 -20 15 -24 0 -5 9 -19 20
-31 12 -12 18 -22 14 -22 -3 0 -1 -6 5 -14 9 -10 41 -14 125 -15 l114 0 12 29
c7 17 16 30 21 30 5 0 8 3 7 8 -3 8 33 85 43 92 3 3 9 15 13 28 5 13 12 20 19
16 7 -4 9 -4 5 1 -4 4 -3 14 3 22 6 7 8 13 4 13 -3 0 3 12 14 26 11 15 18 30
15 35 -3 5 0 9 7 9 7 0 9 3 6 7 -4 3 2 13 13 20 11 8 18 19 15 24 -4 5 -1 9 5
9 6 0 9 4 5 9 -3 5 1 16 9 24 8 8 13 16 12 18 -2 2 2 10 10 17 8 7 14 10 14 6
0 -4 11 5 25 20 13 14 26 25 27 24 2 -2 10 3 18 10 54 46 70 62 61 62 -5 0
-20 18 -32 40 -13 22 -27 40 -33 40 -5 0 -7 3 -3 6 3 4 -8 27 -26 53 -17 25
-31 49 -29 54 1 4 -3 7 -8 7 -6 0 -10 9 -10 19 0 11 -9 22 -20 26 -11 3 -19 9
-19 13 4 23 -2 42 -11 37 -5 -3 -10 3 -10 14 0 12 -4 21 -10 21 -5 0 -10 7
-10 15 0 8 -3 15 -8 15 -4 0 -18 20 -31 44 -24 47 -51 67 -51 39 0 -9 -3 -13
-7 -10 -3 4 -20 -8 -36 -26 -17 -17 -26 -25 -22 -17 5 8 -4 3 -20 -12 -15 -16
-32 -28 -36 -28 -5 0 -9 -7 -9 -16 0 -8 -4 -13 -9 -10 -4 3 -17 -4 -27 -15
-39 -43 -51 -43 -93 0 -21 21 -41 46 -44 56 -4 9 -11 13 -17 10 -5 -3 -10 0
-10 9 0 8 -3 16 -7 18 -5 2 -24 21 -42 43 -19 22 -39 39 -44 37 -5 -1 -6 2 -2
8 3 5 1 10 -5 10 -6 0 -8 5 -4 12 5 7 2 9 -9 5 -12 -4 -14 -2 -10 10 4 11 2
14 -5 9 -7 -4 -12 -2 -12 3 0 6 -13 24 -30 39 -16 16 -30 35 -30 41 0 7 -4 9
-10 6 -5 -3 -10 -1 -10 4 0 25 -29 5 -102 -70z m132 -9 c14 -18 38 -46 54 -63
16 -18 35 -42 43 -54 9 -13 20 -20 26 -16 6 3 7 1 3 -5 -4 -7 -2 -12 3 -12 6
0 11 -7 11 -15 0 -8 9 -24 19 -34 11 -11 17 -22 14 -25 -3 -2 4 -18 16 -34 12
-17 21 -35 21 -41 0 -6 4 -11 9 -11 5 0 11 -9 14 -20 3 -13 14 -20 29 -20 12
0 30 -5 38 -11 12 -9 12 -10 -3 -5 -10 3 -29 6 -41 6 -17 0 -30 13 -51 53 -16
28 -31 54 -35 57 -3 3 -12 20 -19 38 -8 18 -29 49 -47 69 -19 20 -34 39 -34
42 -1 4 -28 35 -60 71 l-60 65 -121 -122 c-66 -68 -126 -123 -132 -122 -9 0
-9 2 0 5 7 3 11 11 9 17 -1 7 -1 9 1 5 6 -10 42 23 39 36 -2 6 -1 8 1 4 3 -4
10 -2 18 5 7 7 11 15 8 20 -2 4 1 7 7 7 14 0 41 26 35 34 -3 3 -2 4 1 2 3 -2
33 24 67 58 68 69 74 70 117 16z m547 -188 c0 -11 -4 -10 -14 3 -12 18 -14 18
-38 -5 -14 -13 -25 -19 -25 -15 0 5 12 19 26 32 20 17 29 19 38 10 7 -6 13
-18 13 -25z m-638 -72 c34 -50 35 -51 48 -28 8 15 12 18 13 8 0 -9 -5 -21 -12
-28 -14 -14 -48 2 -48 23 0 8 -3 15 -8 15 -4 0 -12 10 -17 23 -9 20 -33 26
-27 6 1 -5 -2 -9 -7 -9 -4 0 -22 -28 -39 -62 -34 -69 -61 -109 -62 -92 0 6 9
22 19 36 11 13 23 37 26 51 4 15 11 27 15 27 5 0 14 15 20 34 10 30 20 42 40
45 3 1 20 -22 39 -49z m551 46 c0 -2 -27 -26 -59 -52 l-60 -48 42 -49 41 -49
23 28 c13 16 26 39 29 52 4 12 13 22 22 22 13 0 13 -2 -1 -18 -10 -10 -17 -24
-17 -30 0 -7 -5 -12 -12 -12 -6 0 -9 -3 -5 -6 3 -3 -3 -15 -13 -27 -18 -19
-21 -19 -38 -4 -10 10 -22 14 -27 10 -4 -5 -5 -2 -1 5 4 7 1 15 -8 18 -8 3
-18 14 -21 25 -4 11 -11 17 -16 14 -5 -4 -9 -1 -9 5 0 16 39 70 51 70 5 0 22
11 37 25 24 23 42 31 42 21z m111 -13 c1 -10 1 -21 0 -25 0 -5 3 -8 8 -8 5 0
11 -7 15 -15 11 -30 -12 -14 -28 19 -19 40 -20 46 -6 46 6 0 11 -8 11 -17z
m-881 -4 c0 -10 -35 -29 -52 -28 -7 0 -3 4 10 10 13 5 21 13 18 17 -3 5 1 9 9
9 8 0 15 -4 15 -8z m-46 -52 c-4 -12 26 -42 81 -81 11 -8 17 -17 14 -21 -4 -3
-13 1 -22 9 -8 8 -17 13 -20 10 -3 -3 -8 4 -12 15 -3 12 -11 21 -16 21 -16 0
-39 27 -39 44 0 9 4 16 10 16 5 0 7 -6 4 -13z m361 2 c11 -17 -1 -21 -15 -4
-8 9 -8 15 -2 15 6 0 14 -5 17 -11z m573 -22 c20 -2 21 -3 6 -14 -11 -8 -21
-9 -29 -3 -6 5 -22 14 -36 20 -22 10 -22 10 6 4 17 -3 40 -6 53 -7z m-550 -14
c-1 -7 30 -83 37 -91 8 -8 45 20 45 33 0 8 5 15 10 15 11 0 22 -10 93 -88 42
-46 57 -52 58 -24 2 47 18 94 30 86 6 -4 6 -10 0 -18 -6 -7 -8 -16 -4 -19 3
-4 1 -7 -5 -7 -7 0 -11 -3 -10 -7 1 -5 -1 -23 -5 -40 -6 -31 -8 -32 -32 -21
-13 6 -27 20 -31 30 -3 11 -8 17 -11 14 -8 -8 -34 14 -28 24 2 4 -7 18 -21 31
l-26 24 -18 -22 c-9 -12 -20 -19 -24 -16 -3 4 -6 2 -6 -4 0 -5 -7 -10 -15 -10
-8 0 -13 2 -10 5 2 2 -7 26 -20 53 -28 54 -29 59 -15 59 6 0 9 -3 8 -7z"/>
<path d="M3641 986 c-8 -9 -7 -17 2 -30 12 -16 14 -16 31 3 17 19 17 20 -2 30
-15 8 -23 7 -31 -3z"/>
<path d="M1928 940 c-10 -17 -18 -34 -18 -38 -1 -4 -8 -11 -16 -15 -8 -4 -14
-14 -14 -22 0 -7 -3 -15 -7 -17 -17 -7 -63 -90 -57 -101 4 -7 4 -9 -1 -5 -8 8
-45 -33 -45 -51 0 -6 -5 -11 -12 -11 -6 0 -9 -3 -5 -6 3 -3 -5 -18 -19 -32
-22 -25 -25 -31 -23 -49 0 -3 -6 -10 -15 -15 -9 -5 -16 -15 -16 -22 0 -8 -7
-16 -15 -20 -8 -3 -15 -12 -15 -19 0 -8 -7 -20 -15 -27 -8 -7 -13 -16 -10 -20
3 -5 2 -10 -3 -12 -17 -7 -53 -69 -46 -79 4 -7 3 -9 -3 -6 -6 4 -21 -13 -34
-37 -13 -25 -27 -42 -31 -40 -4 3 -8 -1 -8 -9 0 -8 -14 -33 -30 -55 -17 -23
-27 -42 -23 -42 5 0 -3 -9 -17 -20 -16 -13 -20 -20 -10 -20 10 0 7 -5 -8 -16
-12 -8 -20 -19 -17 -24 3 -4 -2 -10 -10 -14 -8 -3 -15 -10 -15 -16 0 -6 -7
-18 -15 -26 -8 -8 -12 -21 -9 -29 8 -21 1412 -21 1421 0 3 8 -2 22 -11 30 -9
9 -16 20 -16 25 0 5 -13 31 -29 59 -16 27 -27 52 -24 55 4 3 1 6 -5 6 -7 0
-12 7 -12 15 0 8 -4 15 -10 15 -5 0 -10 9 -10 19 0 11 -5 23 -11 26 -5 4 -14
17 -20 28 -14 34 -32 59 -61 88 -15 14 -24 30 -20 34 4 3 3 6 -3 5 -20 -4 -36
0 -31 8 3 5 -6 15 -19 22 -14 7 -27 22 -31 32 -3 11 -8 17 -10 15 -3 -2 -32
22 -65 55 -33 32 -64 56 -69 53 -6 -4 -7 1 -3 11 4 12 3 15 -5 10 -7 -4 -12
-2 -12 3 0 14 -37 51 -51 51 -5 0 -7 5 -4 10 3 6 1 10 -4 10 -15 0 -51 37 -51
53 0 8 -4 7 -10 -3 -7 -10 -10 -11 -10 -2 0 12 -96 113 -102 107 -2 -2 -14 12
-28 31 -14 18 -31 31 -38 29 -7 -3 -11 -1 -8 3 4 7 -27 42 -37 42 -1 0 -10
-14 -19 -30z m78 -66 c6 -8 20 -25 30 -39 10 -13 21 -22 26 -19 4 3 8 -3 8
-13 0 -12 -16 -2 -54 36 -47 46 -57 52 -70 41 -9 -7 -16 -18 -16 -26 0 -7 -6
-17 -13 -21 -7 -4 -30 -33 -51 -65 -42 -63 -43 -62 6 -167 l30 -63 24 35 c13
20 24 41 24 46 0 6 9 15 20 21 18 9 25 6 48 -19 14 -17 30 -31 34 -31 5 0 24
18 44 40 20 22 43 40 51 40 8 0 12 4 8 9 -3 5 0 13 6 16 7 5 9 -1 7 -16 -1
-13 -5 -22 -8 -20 -7 6 -53 -19 -47 -25 6 -6 -36 -49 -55 -56 -8 -4 -24 6 -37
23 -28 35 -57 38 -65 6 -15 -62 -75 -96 -83 -48 -1 12 -12 39 -23 61 -11 22
-20 46 -20 55 0 8 -4 15 -10 15 -14 0 -8 21 12 44 10 10 15 22 13 26 -3 5 2
10 10 14 9 3 12 12 8 22 -4 11 -3 15 5 10 11 -7 38 31 34 47 -1 5 1 6 6 3 5
-3 15 6 22 20 11 20 19 24 40 19 14 -3 30 -13 36 -21z m109 -129 c13 -12 26
-21 28 -19 2 2 4 -3 4 -11 0 -20 -1 -20 -41 22 -19 20 -32 42 -28 47 3 6 7 5
10 -3 2 -6 15 -23 27 -36z"/>
<path d="M1074 692 c-12 -20 -7 -55 7 -47 5 4 9 1 9 -5 0 -15 17 -3 30 20 8
14 5 21 -13 33 -21 14 -24 13 -33 -1z"/>
<path d="M904 639 c-10 -17 13 -36 27 -22 12 12 4 33 -11 33 -5 0 -12 -5 -16
-11z"/>
<path d="M3574 591 c4 -6 2 -11 -3 -11 -6 0 -11 -6 -11 -14 0 -8 10 -13 25
-13 31 0 33 22 4 38 -15 8 -19 8 -15 0z"/>
<path d="M3518 541 c-42 -42 -118 -108 -118 -104 0 2 -18 -15 -40 -38 -22 -23
-37 -46 -34 -50 3 -5 1 -9 -4 -9 -9 0 -46 -78 -43 -92 0 -5 -4 -8 -10 -8 -5 0
-7 -4 -4 -10 3 -5 2 -10 -3 -10 -8 0 -23 -35 -19 -43 1 -2 -6 -11 -16 -21 -9
-10 -15 -22 -11 -27 3 -5 -2 -12 -11 -15 -9 -4 -14 -13 -11 -20 3 -8 1 -14 -5
-14 -6 0 -9 -6 -6 -12 2 -7 -3 -18 -11 -24 -39 -29 2 -32 388 -32 l391 0 -7
21 c-10 31 -35 67 -46 67 -5 0 -7 4 -3 9 3 5 -2 17 -11 25 -8 9 -13 16 -9 16
5 0 -2 11 -31 43 -6 7 -15 23 -18 35 -4 12 -12 22 -17 22 -6 0 -7 5 -4 10 3 6
2 10 -4 10 -5 0 -13 9 -16 20 -3 11 -12 26 -18 32 -17 18 -77 118 -77 128 0 4
-7 11 -16 14 -8 3 -13 10 -10 15 3 5 -1 11 -9 15 -19 7 -19 2 0 -35 19 -35 13
-49 -20 -49 -13 0 -29 -8 -35 -17 -10 -17 -10 -16 -8 2 2 11 12 21 23 23 44 7
47 10 29 38 -13 19 -15 30 -7 43 8 12 7 22 -3 36 -8 10 -17 15 -21 11 -4 -4
-1 -11 7 -16 8 -5 11 -12 7 -16 -4 -4 -15 2 -23 15 l-16 23 -64 -63 c-35 -35
-64 -67 -64 -71 0 -4 10 -8 23 -8 12 0 38 -13 57 -30 24 -20 38 -26 46 -19 8
7 15 6 20 -2 4 -8 3 -9 -4 -5 -7 4 -12 3 -12 -2 0 -6 -11 -9 -24 -8 -13 0 -22
4 -20 7 3 6 -43 51 -49 47 -1 -1 -12 1 -24 4 -32 8 -29 33 7 59 16 12 27 26
24 30 -2 4 5 10 16 14 11 3 19 12 17 18 -1 7 4 11 11 10 13 -3 15 6 4 23 -5 8
-16 3 -34 -15z"/>
<path d="M1062 500 c-7 -12 -8 -21 -2 -25 13 -8 30 3 30 20 0 23 -15 25 -28 5z"/>
</g>
</svg>
